# xmcd
#
# Track frame offsets: 
#        150
#        13471
#        31226
#        48692
#        70676
#        92364
#        115025
#        134496
#        154110
#        164772
#        181660
#        195391
#        212622
#
# Disc length: 3158 seconds
#
# Revision: 0
# Processed by: cddbd v1.5.2PL0 Copyright (c) Steve Scherf et al.
# Submitted via: ExactAudioCopy v0.99pb4
#
DISCID=ac0c540d
DTITLE=Guy Forsyth - calico girl
DYEAR=2008
DGENRE=Blues
TTITLE0=Where'd You Get The Music?
TTITLE1=Tattletale
TTITLE2=If I Was Sick
TTITLE3=Children Of Jack
TTITLE4=Hometown Boy
TTITLE5=New Monkey King
TTITLE6=Calico Girl
TTITLE7=Can You Live Without
TTITLE8=Don't You Mind People Grinnin' In Your Face
TTITLE9=Leave Me Alone
TTITLE10=Faith
TTITLE11=True Friends
TTITLE12=Heart Of Sawdust
EXTD=
EXTT0=
EXTT1=
EXTT2=
EXTT3=
EXTT4=
EXTT5=
EXTT6=
EXTT7=
EXTT8=
EXTT9=
EXTT10=
EXTT11=
EXTT12=
PLAYORDER=
